<?xml version="1.0" encoding="UTF-8"?>
<svg width="41px" height="288px" viewBox="0 0 41 288" version="1.1" xmlns="http://www.w3.org/2000/svg" xmlns:xlink="http://www.w3.org/1999/xlink">
    <!-- Generator: Sketch 44.1 (41455) - http://www.bohemiancoding.com/sketch -->
    <title>Page 1</title>
    <desc>Created with Sketch.</desc>
    <defs>
        <polygon id="path-1" points="21.0594205 0.0286914757 21.0594205 15.1167576 0.0645213068 15.1167576 0.0645213068 0.0286914757 21.0594205 0.0286914757"></polygon>
        <polygon id="path-3" points="21.0594205 0.207418997 21.0594205 15.7037869 0.0643542614 15.7037869 0.0643542614 0.207418997 21.0594205 0.207418997"></polygon>
    </defs>
    <g id="Page-1" stroke="none" stroke-width="1" fill="none" fill-rule="evenodd">
        <g id="Main-Laptop" transform="translate(-58.000000, -25.000000)">
            <g id="Page-1" transform="translate(58.000000, 25.000000)">
                <g id="Group-3" transform="translate(0.000000, 0.007215)" fill="#353535">
                    <path d="M22.0605514,0.0394894533 C22.0605514,12.8127137 13.4071517,23.9931784 8.35227274e-05,23.9931784 L8.35227274e-05,38.0016748 L18.0569815,38.0016748 L18.0569815,221.997158 L40.0567728,221.997158 L40.0567728,0.0394894533 L22.0605514,0.0394894533 Z" id="Fill-1"></path>
                </g>
                <g id="Group" transform="translate(17.480000, 232.210551)">
                    <path d="M3.20517273,5.80315251 C4.76704773,5.80315251 6.03325227,4.5162804 6.03325227,2.92891178 C6.03325227,1.34154315 4.76704773,0.0542466189 3.20517273,0.0542466189 C1.64329773,0.0542466189 0.377093182,1.34154315 0.377093182,2.92891178 C0.377093182,4.5162804 1.64329773,5.80315251 3.20517273,5.80315251" id="Fill-4" fill="#353535"></path>
                    <g id="Group-8" transform="translate(0.312614, 7.473667)">
                        <mask id="mask-2" fill="white">
                            <use xlink:href="#path-1"></use>
                        </mask>
                        <g id="Clip-7"></g>
                        <path d="M10.590473,9.20232395 C10.3683026,9.60171269 10.0805668,9.93107046 9.7235071,10.1840308 C9.36644744,10.4399622 8.96470312,10.629258 8.51159233,10.7570115 C8.05889915,10.8851894 7.59075426,10.9492783 7.11091619,10.9492783 C6.6486179,10.9492783 6.19592472,10.8792473 5.75200142,10.741732 C5.31100142,10.604641 4.91510369,10.4004902 4.57015483,10.1258839 C4.22186506,9.85170203 3.94289915,9.52531527 3.73283949,9.14120602 C3.52027415,8.76006777 3.41503551,8.31526502 3.41503551,7.80594888 C3.41503551,7.27838225 3.52027415,6.80896254 3.73283949,6.39768976 C3.94289915,5.98599255 4.22812926,5.63838429 4.58477131,5.35783598 C4.93890767,5.07134566 5.3439929,4.85785731 5.79668608,4.71142892 C6.24979687,4.56542496 6.70583097,4.49199855 7.16771165,4.49199855 C7.66884801,4.49199855 8.14576278,4.55905851 8.59845597,4.69614944 C9.04864347,4.83366479 9.45038778,5.03781568 9.79533665,5.31199753 C10.1436264,5.58660381 10.4163281,5.93421208 10.6205412,6.35482232 C10.8214134,6.77543256 10.9233111,7.26013175 10.9233111,7.80594888 C10.9233111,8.33648652 10.8126435,8.7999642 10.590473,9.20232395 M17.6368679,1.87920677 C16.6258253,1.23279971 15.4949276,0.763380002 14.2441747,0.470947654 C12.9934219,0.175119865 11.7393281,0.0286914757 10.4885753,0.0286914757 C9.19856676,0.0286914757 7.93277983,0.147531908 6.69079687,0.38224176 C5.44881392,0.616951613 4.33879687,1.03798629 3.35489915,1.64449692 C2.37434233,2.25143198 1.57920597,3.0620935 0.97324858,4.08030134 C0.367291193,5.09553817 0.0645213068,6.37901484 0.0645213068,7.92478931 C0.0645213068,9.00114408 0.250359375,9.97987992 0.628299716,10.8609968 C1.00331676,11.7387183 1.52241051,12.4980238 2.18516335,13.1350934 C2.8512571,13.769192 3.63094176,14.2602576 4.52505256,14.6014994 C5.42208665,14.9431657 6.38802699,15.1167576 7.42872017,15.1167576 C8.23554972,15.1167576 9.03653267,14.9885797 9.82540483,14.7326483 C10.614277,14.479688 11.3162855,14.0773282 11.9343537,13.5315111 C12.567456,12.943251 13.0744389,12.229784 13.4490384,11.388139 C13.8240554,10.5469186 14.0132344,9.68702314 14.0132344,8.80590623 C14.0132344,7.80594888 13.8390895,6.92780297 13.4941406,6.16255548 C13.1462685,5.40070342 12.567456,4.73604587 11.7602088,4.16900723 L11.8174219,4.1078893 C12.3753537,4.1291108 13.0113793,4.20550822 13.725081,4.34259915 C14.436277,4.47969008 15.105294,4.69614944 15.7321321,4.98900621 C16.3560469,5.28186299 16.8868338,5.67785629 17.3190639,6.17783496 C17.7537997,6.67781364 17.969706,7.29705717 17.969706,8.04065873 C17.969706,8.76643423 17.7178849,9.37294486 17.2167486,9.86103949 C16.7160298,10.3516807 16.1309531,10.662788 15.4560895,10.7998789 L15.4560895,14.7632073 C16.3618935,14.6473379 17.1599531,14.4003196 17.8527741,14.0285188 C18.5460128,13.6562936 19.1277486,13.1779608 19.6017401,12.5926717 C20.0728082,12.0039871 20.4327912,11.3304165 20.6846122,10.565169 C20.9335099,9.80289256 21.0596293,8.97992257 21.0596293,8.10177667 C21.0596293,6.63239961 20.7418253,5.39136596 20.1057997,4.37315812 C19.4697741,3.35495028 18.6479105,2.52264282 17.6368679,1.87920677" id="Fill-6" fill="#353535" mask="url(#mask-2)"></path>
                    </g>
                    <path d="M20.9672412,31.3951848 C20.1963264,31.2763444 19.551531,31.0322971 19.0324372,30.6604963 C18.5133435,30.2886955 18.0936418,29.8341309 17.7754202,29.2976512 C17.4576162,28.7582005 17.2354457,28.1512655 17.1126673,27.4776949 C16.986548,26.8007289 16.9326759,26.1025413 16.9535565,25.3771903 L13.8636332,25.3771903 L13.8636332,30.5446269 L0.751817898,30.5446269 L0.751817898,34.7121062 L20.9672412,34.7121062 L20.9672412,31.3951848 Z" id="Fill-9" fill="#353535"></path>
                    <g id="Group-13" transform="translate(0.312614, 39.730356)">
                        <mask id="mask-4" fill="white">
                            <use xlink:href="#path-3"></use>
                        </mask>
                        <g id="Clip-12"></g>
                        <path d="M17.6788798,9.55464339 C17.4867776,9.95700314 17.2470673,10.2681104 16.9589139,10.4934828 C16.6707605,10.7192796 16.3650673,10.87165 16.0501866,10.9480475 C15.7319651,11.0269915 15.4379651,11.0668879 15.1681866,11.0668879 C14.3012207,11.0668879 13.6413912,10.7740311 13.1882804,10.185771 C12.7380929,9.59751083 12.5104935,8.86579332 12.5104935,7.9846764 C12.5104935,7.14303148 12.7380929,6.40834296 13.1882804,5.78358183 C13.6413912,5.15542526 14.3012207,4.84431799 15.1681866,4.84431799 C15.6300673,4.84431799 16.0351526,4.92665743 16.3801014,5.09430733 C16.7279736,5.25898621 17.016127,5.49072505 17.2470673,5.78358183 C17.4780077,6.07601418 17.6550759,6.41428498 17.7807776,6.79542322 C17.9068969,7.17656146 17.9699565,7.57297919 17.9699565,7.9846764 C17.9699565,8.63108346 17.8739054,9.15228364 17.6788798,9.55464339 M9.53750199,9.37765603 C9.3817321,9.79869071 9.15956165,10.1704915 8.87182585,10.4934828 C8.58367244,10.8168985 8.24164688,11.0698589 7.84574915,11.2557593 C7.45277472,11.4416597 7.01469801,11.5363076 6.53193665,11.5363076 C6.03080028,11.5363076 5.5689196,11.4480261 5.14587699,11.2710388 C4.72283438,11.0940514 4.36285142,10.8474575 4.06300483,10.5240418 C3.76608153,10.2010505 3.53514119,9.82882524 3.37018381,9.408215 C3.20814972,8.98760476 3.12420938,8.52115606 3.12420938,8.01523537 C3.12420938,7.52416973 3.20814972,7.05475002 3.37018381,6.60655182 C3.53514119,6.15538261 3.76608153,5.76830235 4.06300483,5.4448866 C4.36285142,5.12189528 4.72283438,4.86256848 5.14587699,4.66775506 C5.5689196,4.47251721 6.04291108,4.37489828 6.56200483,4.37489828 C7.60269801,4.37489828 8.39449347,4.72547756 8.9436554,5.42960712 C9.49239972,6.1341611 9.76844233,6.99660309 9.76844233,8.01523537 C9.76844233,8.50290557 9.69034858,8.95704579 9.53750199,9.37765603 M19.6738202,3.274351 C19.2119395,2.6190309 18.6327094,2.08509782 17.9398884,1.67382504 C17.2470673,1.26212783 16.4490077,1.05797694 15.5432037,1.05797694 C14.5413486,1.05797694 13.6651952,1.31093729 12.9151611,1.82025343 C12.1655446,2.32914513 11.6552207,3.08208416 11.3854423,4.0820415 L11.325306,4.0820415 C11.0375702,2.8473743 10.461681,1.89325541 9.59471506,1.21926039 C8.72774915,0.542718786 7.64780028,0.207418997 6.36071506,0.207418997 C5.26280881,0.207418997 4.31816676,0.426849365 3.52887699,0.865710103 C2.74000483,1.30796628 2.08602187,1.89325541 1.56442244,2.62794393 C1.04532869,3.36263246 0.664465057,4.1919689 0.424337216,5.12189528 C0.184209375,6.05182166 0.0643542614,7.01485359 0.0643542614,8.01523537 C0.0643542614,8.97232527 0.193396875,9.91116469 0.454405398,10.832178 C0.712490625,11.7497959 1.10212415,12.5727659 1.62414119,13.2985414 C2.14323494,14.0209215 2.7972179,14.6032396 3.58609006,15.0425248 C4.37496222,15.4843565 5.31083437,15.7037869 6.38785994,15.7037869 C7.65991108,15.7037869 8.73359574,15.3714581 9.60974915,14.7068005 C10.4854849,14.039172 11.0584509,13.0909951 11.325306,11.8592989 L11.3854423,11.8592989 C11.7124338,12.8562852 12.2524082,13.6062533 13.0024423,14.1032609 C13.7520588,14.6032396 14.6282122,14.8532289 15.6300673,14.8532289 C16.1312037,14.8532289 16.6920588,14.7343885 17.3188969,14.4996786 C17.9457349,14.2649688 18.5308116,13.8778885 19.079556,13.3409844 C19.6287179,12.8015338 20.0968628,12.0940088 20.4806497,11.2133163 C20.8677776,10.3321994 21.0594622,9.25584459 21.0594622,7.9846764 C21.0594622,7.14303148 20.9425304,6.31072403 20.7115901,5.49072505 C20.4806497,4.66775506 20.1357009,3.92967109 19.6738202,3.274351" id="Fill-11" fill="#353535" mask="url(#mask-4)"></path>
                    </g>
                </g>
            </g>
        </g>
    </g>
</svg>