<?xml version="1.0" encoding="UTF-8"?>
<svg width="54px" height="21px" viewBox="0 0 54 21" version="1.1" xmlns="http://www.w3.org/2000/svg" xmlns:xlink="http://www.w3.org/1999/xlink">
    <!-- Generator: Sketch 44.1 (41455) - http://www.bohemiancoding.com/sketch -->
    <title>618</title>
    <desc>Created with Sketch.</desc>
    <defs></defs>
    <g id="Page-1" stroke="none" stroke-width="1" fill="none" fill-rule="evenodd">
        <g id="Main-Desctop" transform="translate(-1465.000000, -4331.000000)" fill="#FFFFFF">
            <g id="618" transform="translate(1465.000000, 4331.000000)">
                <path d="M2.5,21 C3.88068517,21 5,19.8807678 5,18.5001846 C5,17.1196013 3.88068517,16 2.5,16 C1.11931483,16 -1.42108547e-14,17.1196013 -1.42108547e-14,18.5001846 C-1.42108547e-14,19.8807678 1.11931483,21 2.5,21" id="Fill-4" transform="translate(2.500000, 18.500000) rotate(-90.000000) translate(-2.500000, -18.500000) "></path>
                <path d="M14.5283977,12.1176417 C14.3062273,12.5146993 14.0184915,12.8421347 13.6614318,13.0936186 C13.3043722,13.3480561 12.9026278,13.536247 12.449517,13.6632548 C11.9968239,13.7906846 11.528679,13.8543995 11.0488409,13.8543995 C10.5865426,13.8543995 10.1338494,13.7847772 9.68992614,13.6480645 C9.24892614,13.5117738 8.85302841,13.3088145 8.50807955,13.035811 C8.15978977,12.7632295 7.88082386,12.4387478 7.6707642,12.0568805 C7.45819886,11.6779669 7.35296023,11.2357604 7.35296023,10.729417 C7.35296023,10.2049297 7.45819886,9.73824992 7.6707642,9.32937766 C7.88082386,8.92008344 8.16605398,8.5745041 8.52269602,8.2955933 C8.87683239,8.01077516 9.28191761,7.79853291 9.7346108,7.65295919 C10.1877216,7.50780743 10.6437557,7.4348096 11.1056364,7.4348096 C11.6067727,7.4348096 12.0836875,7.50147814 12.5363807,7.63776889 C12.9865682,7.7744816 13.3883125,7.97744089 13.7332614,8.2500224 C14.0815511,8.52302586 14.3542528,8.8686052 14.5584659,9.28676042 C14.7593381,9.70491565 14.8612358,10.1867857 14.8612358,10.729417 C14.8612358,11.256858 14.7505682,11.7176305 14.5283977,12.1176417 M21.5747926,4.83726817 C20.56375,4.19463406 19.4328523,3.72795427 18.1820994,3.43722879 C16.9313466,3.14312769 15.6772528,2.99755398 14.4265,2.99755398 C13.1364915,2.99755398 11.8707045,3.11570076 10.6287216,3.34904066 C9.38673864,3.58238055 8.27672159,4.00095773 7.29282386,4.60392828 C6.31226705,5.20732078 5.51713068,6.01325062 4.9111733,7.02551538 C4.30521591,8.03482647 4.00244602,9.31081173 4.00244602,10.8475638 C4.00244602,11.9176361 4.18828409,12.8906593 4.56622443,13.7666333 C4.94124148,14.6392317 5.46033523,15.3941052 6.12308807,16.0274564 C6.78918182,16.6578538 7.56886648,17.1460532 8.46297727,17.4853033 C9.36001136,17.8249753 10.3259517,17.997554 11.3666449,17.997554 C12.1734744,17.997554 12.9744574,17.8701242 13.7633295,17.6156867 C14.5522017,17.3642028 15.2542102,16.9641916 15.8722784,16.4215603 C16.5053807,15.8367337 17.0123636,15.127431 17.3869631,14.2906987 C17.7619801,13.4543882 17.9511591,12.5995118 17.9511591,11.7235378 C17.9511591,10.729417 17.7770142,9.8563967 17.4320653,9.09561581 C17.0841932,8.33821054 16.5053807,7.67743245 15.6981335,7.11370352 L15.7553466,7.05294231 C16.3132784,7.07403995 16.949304,7.14999146 17.6630057,7.28628221 C18.3742017,7.42257297 19.0432188,7.63776889 19.6700568,7.92891632 C20.2939716,8.22006375 20.8247585,8.61374571 21.2569886,9.11080611 C21.6917244,9.6078665 21.9076307,10.2234956 21.9076307,10.9627569 C21.9076307,11.6842962 21.6558097,12.2872668 21.1546733,12.7725125 C20.6539545,13.2602899 20.0688778,13.5695813 19.3940142,13.7058721 L19.3940142,17.6460673 C20.2998182,17.5308742 21.0978778,17.2852977 21.7906989,16.915667 C22.4839375,16.5456144 23.0656733,16.0700736 23.5396648,15.4882007 C24.010733,14.9029522 24.3707159,14.2333131 24.6225369,13.4725322 C24.8714347,12.714705 24.997554,11.8965385 24.997554,11.0235181 C24.997554,9.56271755 24.67975,8.32892757 24.0437244,7.31666281 C23.4076989,6.30439805 22.5858352,5.47694862 21.5747926,4.83726817" id="Fill-6" transform="translate(14.500000, 10.497554) rotate(-90.000000) translate(-14.500000, -10.497554) "></path>
                <path d="M40.225,11.8671865 C39.4241654,11.746881 38.7543449,11.499825 38.2151047,11.1234405 C37.6758645,10.747056 37.2398739,10.2868873 36.9093019,9.74379376 C36.5791637,9.19769255 36.3483706,8.58327498 36.220827,7.90140038 C36.0898129,7.21608848 36.03385,6.50929344 36.055541,5.775 L32.8456954,5.775 L32.8456954,11.0061426 L19.225,11.0061426 L19.225,15.225 L40.225,15.225 L40.225,11.8671865 Z" id="Fill-9" transform="translate(29.725000, 10.500000) rotate(-90.000000) translate(-29.725000, -10.500000) "></path>
                <path d="M53.6169716,12.0453752 C53.4248693,12.4348468 53.1851591,12.735989 52.8970057,12.9541424 C52.6088523,13.1727067 52.3031591,13.3201965 51.9882784,13.3941468 C51.6700568,13.4705621 51.3760568,13.5091806 51.1062784,13.5091806 C50.2393125,13.5091806 49.579483,13.2257044 49.1263722,12.656287 C48.6761847,12.0868695 48.4485852,11.3785898 48.4485852,10.5256962 C48.4485852,9.7110102 48.6761847,8.99985465 49.1263722,8.3951054 C49.579483,7.78706947 50.2393125,7.48592734 51.1062784,7.48592734 C51.5681591,7.48592734 51.9732443,7.56562935 52.3181932,7.72790921 C52.6660653,7.88731323 52.9542188,8.11162919 53.1851591,8.3951054 C53.4160994,8.67817078 53.5931676,9.00560635 53.7188693,9.37453626 C53.8449886,9.74346617 53.9080483,10.1271861 53.9080483,10.5256962 C53.9080483,11.151398 53.8119972,11.6559035 53.6169716,12.0453752 M45.4755938,11.8740569 C45.3198239,12.2816054 45.0976534,12.6414969 44.8099176,12.9541424 C44.5217642,13.2671987 44.1797386,13.5120565 43.7838409,13.6920022 C43.3908665,13.871948 42.9527898,13.9635642 42.4700284,13.9635642 C41.968892,13.9635642 41.5070114,13.8781105 41.0839688,13.7067923 C40.6609261,13.5354741 40.3009432,13.2967789 40.0010966,12.9837225 C39.7041733,12.671077 39.473233,12.3107747 39.3082756,11.9036371 C39.1462415,11.4964995 39.0623011,11.0449917 39.0623011,10.5552763 C39.0623011,10.0799401 39.1462415,9.6255565 39.3082756,9.19171464 C39.473233,8.75499694 39.7041733,8.38031534 40.0010966,8.067259 C40.3009432,7.75461349 40.6609261,7.50359325 41.0839688,7.31501995 C41.5070114,7.1260358 41.9810028,7.03154373 42.5000966,7.03154373 C43.5407898,7.03154373 44.3325852,7.37089352 44.8817472,8.05246893 C45.4304915,8.73445519 45.7065341,9.56927209 45.7065341,10.5552763 C45.7065341,11.0273258 45.6284403,11.4669194 45.4755938,11.8740569 M55.6119119,5.96624834 C55.1500313,5.33191896 54.5708011,4.81508842 53.8779801,4.41698922 C53.1851591,4.01847918 52.3870994,3.8208675 51.4812955,3.8208675 C50.4794403,3.8208675 49.6032869,4.06572521 48.8532528,4.55872732 C48.1036364,5.0513186 47.5933125,5.78014005 47.3235341,6.74806752 L47.2633977,6.74806752 C46.9756619,5.55294824 46.3997727,4.62939096 45.5328068,3.97698483 C44.6658409,3.3221137 43.585892,2.99755398 42.2988068,2.99755398 C41.2009006,2.99755398 40.2562585,3.20995572 39.4669688,3.6347592 C38.6780966,4.06284937 38.0241136,4.62939096 37.5025142,5.3405465 C36.9834205,6.05170204 36.6025568,6.85447381 36.362429,7.75461349 C36.1223011,8.65475318 36.002446,9.586938 36.002446,10.5552763 C36.002446,11.4817094 36.1314886,12.3904767 36.3924972,13.2819888 C36.6505824,14.1702143 37.0402159,14.9668235 37.562233,15.6693515 C38.0813267,16.3685928 38.7353097,16.9322586 39.5241818,17.3574729 C40.313054,17.7851522 41.2489261,17.997554 42.3259517,17.997554 C43.5980028,17.997554 44.6716875,17.6758701 45.5478409,17.0325023 C46.4235767,16.3862588 46.9965426,15.4684532 47.2633977,14.2762097 L47.3235341,14.2762097 C47.6505256,15.2412614 48.1905,15.967207 48.9405341,16.4482948 C49.6901506,16.9322586 50.566304,17.1742405 51.5681591,17.1742405 C52.0692955,17.1742405 52.6301506,17.0592066 53.2569886,16.8320148 C53.8838267,16.604823 54.4689034,16.2301414 55.0176477,15.710435 C55.5668097,15.1882636 56.0349545,14.5034015 56.4187415,13.6509187 C56.8058693,12.7980251 56.997554,11.7561473 56.997554,10.5256962 C56.997554,9.7110102 56.8806222,8.90536258 56.6496818,8.11162919 C56.4187415,7.31501995 56.0737926,6.60057772 55.6119119,5.96624834" id="Fill-11" transform="translate(46.500000, 10.497554) rotate(-90.000000) translate(-46.500000, -10.497554) "></path>
            </g>
        </g>
    </g>
</svg>