<?xml version="1.0" encoding="UTF-8"?>
<svg width="286px" height="477px" viewBox="0 0 286 477" version="1.1" xmlns="http://www.w3.org/2000/svg" xmlns:xlink="http://www.w3.org/1999/xlink">
    <!-- Generator: Sketch 44.1 (41455) - http://www.bohemiancoding.com/sketch -->
    <title>Page 1</title>
    <desc>Created with Sketch.</desc>
    <defs></defs>
    <g id="Page-1" stroke="none" stroke-width="1" fill="none" fill-rule="evenodd">
        <g id="404" transform="translate(-160.000000, -182.000000)" fill="#353535">
            <g id="Page-1" transform="translate(160.000000, 182.000000)">
                <path d="M13.4619214,410.667157 C15.8781283,410.431517 17.6177972,408.518674 17.349549,406.397914 C17.0793283,404.275421 14.9037559,402.747226 12.487549,402.982866 C10.0733145,403.218506 8.33364552,405.131349 8.60189379,407.252109 C8.87014207,409.374602 11.0457145,410.902797 13.4619214,410.667157" id="Fill-1"></path>
                <path d="M16.1278359,421.324497 C16.3822772,420.742328 16.7649255,420.234662 17.2698634,419.806698 C17.7688841,419.370071 18.3586359,419.023542 19.0332014,418.758447 C19.7097393,418.495084 20.4020566,418.32875 21.1160703,418.257711 C21.891229,418.183208 22.6407462,418.200534 23.3646221,418.314889 C24.0825807,418.430976 24.7393945,418.642359 25.3192841,418.957701 C25.905091,419.27131 26.3843876,419.694076 26.7709807,420.225999 C27.153629,420.757922 27.3942634,421.390338 27.4869669,422.119782 C27.5757255,422.828435 27.4830221,423.466049 27.2068841,424.03609 C26.9327186,424.604399 26.5421807,425.087807 26.0332979,425.479385 C25.5244152,425.876162 24.9346634,426.189771 24.2561531,426.428876 C23.5776428,426.669714 22.863629,426.825652 22.1220014,426.898424 C21.4079876,426.96773 20.6959462,426.94174 19.9858772,426.825652 C19.2797531,426.709565 18.6328014,426.496449 18.0529117,426.181108 C17.4690772,425.867498 16.981891,425.474188 16.5933255,424.992512 C16.1988428,424.514301 15.9601807,423.935597 15.8753669,423.254666 C15.7846359,422.549479 15.8674772,421.906667 16.1278359,421.324497 M18.7412841,432.170869 C20.1870634,432.491409 21.7097669,432.578042 23.3192566,432.420371 C24.5677945,432.299085 25.7847738,432.006268 26.9603324,431.545384 C28.1378634,431.087965 29.155629,430.44342 30.0195462,429.620413 C30.8992428,428.738495 31.5619738,427.70757 31.9998497,426.525904 C32.4357531,425.345972 32.5836841,424.167771 32.4337807,422.989571 C32.2641531,421.6537 31.8460014,420.504955 31.1832703,419.534673 C30.5165945,418.569588 29.508691,417.767372 28.1654772,417.131491 L28.2424014,417.041393 C29.108291,416.985948 30.10436,416.991146 31.2325807,417.067383 C32.3548841,417.143619 33.4259048,417.330745 34.4456428,417.627028 C35.4594634,417.925043 36.3490221,418.373799 37.1005117,418.97676 C37.8579186,419.579721 38.2977669,420.375006 38.4240014,421.369546 C38.546291,422.338096 38.2583186,423.187093 37.5660014,423.914805 C36.8756566,424.647715 36.0235738,425.151915 35.0018634,425.436069 L35.6744566,430.734505 C37.0551462,430.44342 38.2464841,429.991199 39.25636,429.38997 C40.2642634,428.788742 41.0828152,428.06103 41.7179324,427.206835 C42.3471324,426.349174 42.7889531,425.392753 43.0493117,424.332373 C43.3057255,423.275458 43.3609531,422.156168 43.2110497,420.983166 C42.9625255,419.018344 42.2603462,417.408714 41.1045117,416.143882 C39.9486772,414.879049 38.536429,413.889708 36.8657945,413.182787 C35.1912152,412.472402 33.3627876,412.014983 31.3805117,411.813996 C29.394291,411.607811 27.4317393,411.60088 25.4968014,411.789739 C23.502691,411.985528 21.5638083,412.335523 19.6840979,412.836258 C17.8024152,413.338726 16.1574221,414.06817 14.7392566,415.028057 C13.3250359,415.987943 12.2323186,417.192133 11.4670221,418.644092 C10.7017255,420.092585 10.451229,421.854687 10.71356,423.920003 C10.8950221,425.359833 11.3486772,426.638527 12.0824152,427.759549 C12.8102359,428.877107 13.7412152,429.812736 14.8753531,430.564705 C16.0114634,431.311476 17.3014221,431.85033 18.7412841,432.170869" id="Fill-3"></path>
                <path d="M45.2641352,442.190249 C44.0511007,442.148666 43.013611,441.919956 42.1477214,441.500655 C41.2818317,441.081355 40.5559834,440.539036 39.972149,439.868502 C39.3902869,439.196234 38.9445214,438.418276 38.6387972,437.536358 C38.3291283,436.650976 38.1279421,435.725742 38.037211,434.751994 L33.2600248,435.219809 L34.1338041,442.127874 L13.8573903,444.110022 L14.5635145,449.680483 L45.8262731,446.624094 L45.2641352,442.190249 Z" id="Fill-5"></path>
                <path d="M43.6913324,466.553176 C43.4625324,467.119752 43.1449738,467.571973 42.7366841,467.91677 C42.3303669,468.261567 41.882629,468.5128 41.4072772,468.661808 C40.9299531,468.816014 40.4822152,468.913042 40.0640634,468.954625 C38.7247945,469.084574 37.6537738,468.793489 36.8529738,468.076173 C36.058091,467.357125 35.5807669,466.412832 35.4328359,465.236364 C35.2908221,464.111876 35.5176497,463.094812 36.1074014,462.19037 C36.7030703,461.282463 37.6695531,460.767867 39.0107945,460.636186 C39.7248083,460.56688 40.3658428,460.615394 40.9279807,460.786926 C41.4940634,460.954993 41.9773048,461.22182 42.3855945,461.577013 C42.7919117,461.933939 43.1232772,462.36017 43.3816634,462.850509 C43.6420221,463.340848 43.8057324,463.860642 43.8747669,464.409892 C43.9852221,465.274483 43.9240772,465.984868 43.6913324,466.553176 M31.071829,467.547716 C30.900229,468.133351 30.6201462,468.663541 30.2296083,469.140019 C29.8390703,469.614764 29.3538566,470.00461 28.7719945,470.313021 C28.1960497,470.621432 27.535291,470.813756 26.7877462,470.886527 C26.0125876,470.962764 25.2847669,470.91425 24.6003393,470.742717 C23.9159117,470.569453 23.3182703,470.293962 22.7995255,469.907581 C22.2847255,469.519468 21.8646014,469.058584 21.5391531,468.519731 C21.2156772,467.98261 21.0085738,467.372718 20.9217876,466.695253 C20.8389462,466.03858 20.8882566,465.399233 21.0638014,464.77548 C21.243291,464.148262 21.5332359,463.595547 21.9395531,463.119069 C22.3478428,462.640859 22.8606703,462.240617 23.4819807,461.914879 C24.103291,461.590874 24.8192772,461.388155 25.6220497,461.310185 C27.2315393,461.152515 28.5155807,461.500777 29.4840359,462.36017 C30.452491,463.21783 31.024491,464.33019 31.1980634,465.690318 C31.2809048,466.343526 31.2355393,466.962081 31.071829,467.547716 M47.69336,460.662175 C47.1963117,459.596597 46.5375255,458.6627 45.7130566,457.857019 C44.8866152,457.051338 43.9023807,456.42412 42.7603531,455.97883 C41.6183255,455.533539 40.3500634,455.381066 38.9496497,455.517945 C37.3993324,455.670418 36.0876772,456.139966 35.0146841,456.935251 C33.941691,457.728803 33.2809324,458.811708 33.0324083,460.189163 L32.9397048,460.199559 C32.2848634,458.591662 31.2315945,457.403066 29.7779255,456.63377 C28.3222841,455.86101 26.5964221,455.575123 24.6062566,455.769179 C22.9080083,455.935513 21.4839255,456.372141 20.3379531,457.077328 C19.1919807,457.787713 18.2807255,458.669631 17.5982703,459.730011 C16.91976,460.790391 16.4700497,461.956463 16.257029,463.236889 C16.0440083,464.515583 16.0203393,465.821999 16.1899669,467.15787 C16.3517048,468.438297 16.7106841,469.673674 17.2708497,470.864003 C17.8250979,472.052599 18.5667255,473.09392 19.4977048,473.984501 C20.4227669,474.871616 21.5312634,475.550814 22.8271393,476.018629 C24.1210428,476.489909 25.6062703,476.642382 27.2709876,476.479513 C29.2374841,476.287189 30.843029,475.680762 32.0856497,474.660233 C33.3262979,473.634506 34.0521462,472.281308 34.2553048,470.59371 L34.3480083,470.585047 C35.0225738,471.868938 35.9851117,472.788974 37.2297048,473.339956 C38.4742979,473.894403 39.8707669,474.097123 41.4210841,473.94465 C42.1942703,473.870146 43.0424083,473.625843 43.9714152,473.216938 C44.9023945,472.808033 45.7406703,472.203339 46.4980772,471.402856 C47.2574566,470.598908 47.8610152,469.581844 48.3048083,468.346466 C48.7545186,467.111089 48.8689186,465.643536 48.6539255,463.943809 C48.5119117,462.819321 48.1884359,461.724288 47.69336,460.662175" id="Fill-7"></path>
                <g id="Group-11" transform="translate(0.000000, 0.064569)">
                    <path d="M264.531459,7.26152491 L246.253101,0.457418892 L234.730259,24.3419622 L211.507059,15.7376356 L211.520866,15.7081806 C161.43339,-3.60737172 118.70499,-2.24377828 84.5270041,19.7608427 C35.4967421,51.3279442 7.48846621,124.695162 1.28325241,237.823171 C-3.20990621,319.765261 5.50816276,391.872844 5.88292138,394.901512 L39.2344662,391.729034 C29.5065214,312.805216 22.240149,96.3975662 104.357652,43.5292986 C128.212025,28.1728454 158.395873,27.7396836 196.567997,42.1553093 L196.55419,42.181299 L274.217983,71.0489359 L285.308866,48.0584387 C266.993032,41.2387388 256.251266,24.4251292 264.531459,7.26152491" id="Fill-9"></path>
                </g>
            </g>
        </g>
    </g>
</svg>